<svg xmlns="http://www.w3.org/2000/svg" width="1800" height="1050" viewBox="0 0 1800 1050">
 <defs><marker id="a" markerWidth="12" markerHeight="12" refX="10" refY="6" orient="auto"><path d="M0 0 L12 6 L0 12Z" fill="#334155"/></marker><style>.t{font:700 34px Arial;fill:#123047}.s{font:18px Arial;fill:#52616b}.h{font:700 22px Arial;fill:#fff}.x{font:18px Arial;fill:#172554}.p{font:16px Arial;fill:#172554}.b{stroke-width:3;rx:18;ry:18}.l{stroke:#334155;stroke-width:4;fill:none;marker-end:url(#a)}.tag{font:15px Arial;fill:#475569}</style></defs>
 <rect width="1800" height="1050" fill="#f8fafc"/><text x="900" y="56" class="t" text-anchor="middle">Architecture technique et flux de données d'EcoRewind</text><text x="900" y="87" class="s" text-anchor="middle">Les opérations critiques sont validées par FastAPI ; le client Flutter consulte Firebase en lecture seule.</text>
 <rect x="75" y="180" width="290" height="250" class="b" fill="#dbeafe" stroke="#2563eb"/><rect x="75" y="180" width="290" height="55" rx="18" fill="#2563eb"/><text x="220" y="216" class="h" text-anchor="middle">Client Flutter</text><text x="220" y="280" class="x" text-anchor="middle">Application mobile / web</text><text x="220" y="318" class="p" text-anchor="middle">Interface utilisateur</text><text x="220" y="350" class="p" text-anchor="middle">Requêtes HTTP / JSON</text><text x="220" y="382" class="p" text-anchor="middle">Écoute des flux Firebase</text>
 <rect x="525" y="150" width="355" height="315" class="b" fill="#ffedd5" stroke="#ea580c"/><rect x="525" y="150" width="355" height="55" rx="18" fill="#ea580c"/><text x="702" y="186" class="h" text-anchor="middle">Backend FastAPI</text><text x="702" y="253" class="x" text-anchor="middle">API REST et logique métier</text><text x="702" y="291" class="p" text-anchor="middle">Authentification JWT / RBAC / OTP</text><text x="702" y="323" class="p" text-anchor="middle">Validation des scans et opérations</text><text x="702" y="355" class="p" text-anchor="middle">Services, routeurs et tâches de fond</text><text x="702" y="402" class="p" text-anchor="middle">Firebase Admin SDK</text>
 <rect x="1080" y="120" width="275" height="220" class="b" fill="#ede9fe" stroke="#7c3aed"/><rect x="1080" y="120" width="275" height="55" rx="18" fill="#7c3aed"/><text x="1217" y="156" class="h" text-anchor="middle">PostgreSQL</text><text x="1217" y="225" class="x" text-anchor="middle">Données métier</text><text x="1217" y="262" class="p" text-anchor="middle">SQLAlchemy</text><text x="1217" y="294" class="p" text-anchor="middle">Migrations Alembic</text>
 <rect x="1080" y="455" width="275" height="340" class="b" fill="#fef3c7" stroke="#d97706"/><rect x="1080" y="455" width="275" height="55" rx="18" fill="#d97706"/><text x="1217" y="491" class="h" text-anchor="middle">Firebase</text><text x="1217" y="555" class="x" text-anchor="middle">Services temps réel</text><text x="1217" y="596" class="p" text-anchor="middle">Authentication</text><text x="1217" y="628" class="p" text-anchor="middle">Realtime Database</text><text x="1217" y="660" class="p" text-anchor="middle">Cloud Messaging</text><text x="1217" y="706" class="p" text-anchor="middle">Scores, bacs et statistiques</text><text x="1217" y="744" class="tag" text-anchor="middle">Écritures via backend uniquement</text>
 <rect x="1450" y="455" width="270" height="230" class="b" fill="#dcfce7" stroke="#16a34a"/><rect x="1450" y="455" width="270" height="55" rx="18" fill="#16a34a"/><text x="1585" y="491" class="h" text-anchor="middle">Terrain IoT</text><text x="1585" y="554" class="x" text-anchor="middle">Bacs intelligents</text><text x="1585" y="592" class="p" text-anchor="middle">QR code et capteurs</text><text x="1585" y="624" class="p" text-anchor="middle">État et poids</text>
 <rect x="525" y="660" width="355" height="160" class="b" fill="#e0f2fe" stroke="#0284c7"/><text x="702" y="715" class="x" text-anchor="middle">Notifications et mises à jour</text><text x="702" y="751" class="p" text-anchor="middle">Firebase Cloud Messaging</text><text x="702" y="784" class="p" text-anchor="middle">Données synchronisées en temps réel</text>
 <path d="M365 305 H513" class="l"/><text x="440" y="286" class="tag" text-anchor="middle">API REST</text><path d="M880 250 H1068" class="l"/><text x="974" y="231" class="tag" text-anchor="middle">Transactions SQL</text><path d="M880 390 C975 390 975 575 1068 575" class="l"/><text x="965" y="492" class="tag" text-anchor="middle">Admin SDK</text><path d="M1080 675 H892" class="l"/><path d="M702 660 V477 C702 477 500 477 365 390" class="l"/><text x="485" y="510" class="tag" text-anchor="middle">Push et lecture temps réel</text><path d="M1355 625 H1438" class="l"/><path d="M1450 570 H1367" class="l"/><text x="1405" y="548" class="tag" text-anchor="middle">données IoT</text>
 <rect x="75" y="890" width="1645" height="85" rx="15" fill="#e2e8f0"/><text x="900" y="927" class="x" text-anchor="middle">Principe de sécurité : le client Flutter ne modifie pas directement les nœuds Firebase sensibles.</text><text x="900" y="956" class="p" text-anchor="middle">FastAPI authentifie, autorise, valide les règles métier, persiste les données et synchronise les informations temps réel.</text>
</svg>
